<svg width="433" height="433" viewBox="0 0 433 433" fill="none" xmlns="http://www.w3.org/2000/svg">
<path d="M0 190C0 100.433 0 55.6497 27.8249 27.8249C55.6497 0 100.433 0 190 0H243C332.567 0 377.35 0 405.175 27.8249C433 55.6497 433 100.433 433 190V243C433 332.567 433 377.35 405.175 405.175C377.35 433 332.567 433 243 433H190C100.433 433 55.6497 433 27.8249 405.175C0 377.35 0 332.567 0 243V190Z" fill="#E2A94C"/>
<path d="M181.873 315.096C172.327 315.096 165.232 313.419 160.588 310.065C156.202 306.711 154.009 302.583 154.009 297.681L157.879 291.102C156.331 293.682 153.364 296.907 148.978 300.777C144.592 304.389 138.916 307.743 131.95 310.839C124.984 313.677 116.341 315.096 106.021 315.096C94.1526 315.096 82.8006 312.516 71.9646 307.356C61.3866 302.196 51.9696 295.101 43.7136 286.071C35.4576 276.783 28.8786 266.334 23.9766 254.724C19.3326 243.114 17.0106 230.859 17.0106 217.959C17.0106 205.317 19.3326 193.32 23.9766 181.968C28.8786 170.358 35.4576 160.167 43.7136 151.395C52.2276 142.365 61.7736 135.27 72.3516 130.11C82.9296 124.95 94.1526 122.37 106.021 122.37C115.567 122.37 123.694 123.789 130.402 126.627C137.11 129.207 142.657 132.303 147.043 135.915C151.687 139.527 155.17 143.01 157.492 146.364L154.396 140.946C154.138 134.754 156.202 130.11 160.588 127.014C165.232 123.66 172.456 121.983 182.26 121.983C191.548 121.983 198.127 123.402 201.997 126.24C206.125 129.078 208.576 132.819 209.35 137.463C210.382 142.107 210.898 147.009 210.898 152.169V285.684C210.898 290.586 210.382 295.359 209.35 300.003C208.576 304.647 206.125 308.388 201.997 311.226C198.127 313.806 191.419 315.096 181.873 315.096ZM114.535 257.433C121.243 257.433 127.306 255.756 132.724 252.402C138.4 248.79 142.786 244.017 145.882 238.083C149.236 232.149 150.913 225.57 150.913 218.346C150.913 210.864 149.236 204.285 145.882 198.609C142.528 192.675 138.013 188.031 132.337 184.677C126.661 181.065 120.469 179.259 113.761 179.259C106.279 179.259 99.5706 181.065 93.6366 184.677C87.9606 188.289 83.3166 193.062 79.7046 198.996C76.3506 204.93 74.6736 211.638 74.6736 219.12C74.6736 226.086 76.3506 232.536 79.7046 238.47C83.3166 244.146 88.0896 248.79 94.0236 252.402C100.216 255.756 107.053 257.433 114.535 257.433Z" fill="#402506"/>
<path d="M251.717 315.096C242.171 315.096 235.334 313.806 231.206 311.226C227.336 308.388 224.885 304.776 223.853 300.39C223.079 295.746 222.692 290.973 222.692 286.071V149.847C222.692 144.945 223.208 140.43 224.24 136.302C225.272 131.916 227.723 128.433 231.593 125.853C235.721 123.273 242.558 121.983 252.104 121.983C260.36 121.983 266.423 123.144 270.293 125.466C274.163 127.53 276.614 130.11 277.646 133.206C278.936 136.302 279.581 139.269 279.581 142.107C279.581 144.687 279.839 146.493 280.355 147.525L278.033 154.878C278.549 151.008 280.484 147.138 283.838 143.268C287.45 139.14 291.836 135.528 296.996 132.432C302.414 129.078 308.09 126.498 314.024 124.692C320.216 122.886 326.279 121.983 332.213 121.983C344.597 121.983 355.562 124.305 365.108 128.949C374.912 133.335 383.168 139.785 389.876 148.299C396.584 156.813 401.615 166.875 404.969 178.485C408.581 189.837 410.387 202.35 410.387 216.024V286.458C410.387 291.36 409.871 296.133 408.839 300.777C408.065 305.163 405.614 308.646 401.486 311.226C397.616 313.806 390.908 315.096 381.362 315.096C371.558 315.096 364.592 313.806 360.464 311.226C356.594 308.388 354.143 304.776 353.111 300.39C352.079 295.746 351.563 290.973 351.563 286.071V216.024C351.563 208.284 350.273 201.705 347.693 196.287C345.113 190.869 341.243 186.741 336.083 183.903C330.923 180.807 324.602 179.259 317.12 179.259C309.638 179.259 303.188 180.807 297.77 183.903C292.352 186.999 288.095 191.256 284.999 196.674C282.161 202.092 280.742 208.542 280.742 216.024V286.458C280.742 291.36 280.226 296.133 279.194 300.777C278.42 305.163 275.969 308.646 271.841 311.226C267.971 313.806 261.263 315.096 251.717 315.096Z" fill="#402506"/>
</svg>
